#N canvas 31 62 2383 1277 12;
#X obj 245 1830 tabwrite~ c;
#X obj 139 1300 bng 15 250 50 0 empty empty oneshot 0 -6 1 8 -262144
-1 -1;
#X obj 139 1524 +~;
#X obj 261 1395 del 12;
#X floatatom 298 1378 5 0 0 2 noise - -;
#X obj 261 1435 f 100;
#X floatatom 291 1416 5 0 0 0 - - -;
#X obj 200 1392 del 12;
#X floatatom 237 1375 5 0 0 2 barrel - -;
#X floatatom 209 1576 5 0 0 0 - - -;
#X obj 158 1639 *~;
#X floatatom 246 1596 5 0 100 0 - - -;
#X floatatom 223 1415 5 0 0 0 - - -;
#X obj 200 1437 f 20;
#X floatatom 162 1368 5 0 0 2 chirptime - -;
#N canvas 0 0 180 260 barrel 0;
#X obj 54 41 vline~;
#X obj -1 179 cos~;
#X obj -1 157 -~ 0.25;
#X obj -1 135 wrap~;
#X obj -1 113 pow~;
#X obj 38 217 *~;
#X obj 23 92 sig~ 2;
#X msg 54 21 0 \, 1 0 0 \, 0 \$1 0;
#X obj -1 72 *~ 2;
#X obj 54 0 inlet;
#X obj 38 240 outlet~;
#X connect 0 0 8 0;
#X connect 0 0 5 1;
#X connect 1 0 5 0;
#X connect 2 0 1 0;
#X connect 3 0 2 0;
#X connect 4 0 3 0;
#X connect 5 0 10 0;
#X connect 6 0 4 1;
#X connect 7 0 0 0;
#X connect 8 0 4 0;
#X connect 9 0 7 0;
#X restore 200 1461 pd barrel;
#N canvas 0 0 126 206 shell 0;
#X obj 3 162 cos~;
#X obj 3 40 vline~;
#X obj 3 141 -~ 0.25;
#X obj 3 121 wrap~;
#X obj 3 101 pow~;
#X obj 3 60 *~ 1.05;
#X obj 25 81 sig~ 64;
#X obj 3 -2 inlet;
#X obj 3 185 outlet~;
#X msg 3 19 0 \, 1 0 0 \, 0 \$1;
#X connect 0 0 8 0;
#X connect 1 0 5 0;
#X connect 2 0 0 0;
#X connect 3 0 2 0;
#X connect 4 0 3 0;
#X connect 5 0 4 0;
#X connect 6 0 4 1;
#X connect 7 0 9 0;
#X connect 9 0 1 0;
#X restore 139 1497 pd shell;
#N canvas 497 98 272 480 noiseburst 0;
#X obj 104 79 vline~;
#X obj 104 180 *~;
#X obj 104 104 *~;
#X obj 104 129 *~;
#X obj 104 154 *~;
#X obj 104 317 outlet~;
#X obj 104 28 inlet;
#N canvas 518 256 450 300 nwavenoise 0;
#X obj 131 200 max~;
#X obj 131 167 -~ 1;
#X obj 186 166 *~ -1;
#X obj 131 250 +~ 0.5;
#X obj 131 225 *~ 2;
#X obj 128 20 noise~;
#X obj 130 129 phasor~;
#X obj 131 281 outlet~;
#X obj 128 65 hip~ 40;
#X obj 130 108 +~ 100;
#X obj 128 87 *~ 5000;
#X obj 127 43 bp~ 3000 2;
#X connect 0 0 4 0;
#X connect 1 0 0 0;
#X connect 2 0 0 1;
#X connect 3 0 7 0;
#X connect 4 0 3 0;
#X connect 5 0 11 0;
#X connect 6 0 1 0;
#X connect 6 0 2 0;
#X connect 8 0 10 0;
#X connect 9 0 6 0;
#X connect 10 0 9 0;
#X connect 11 0 8 0;
#X restore 131 155 pd nwavenoise;
#X msg 104 56 0 \, 1 0 7 \, 0 \$1 7;
#X connect 0 0 2 0;
#X connect 0 0 2 1;
#X connect 1 0 5 0;
#X connect 2 0 3 0;
#X connect 2 0 3 1;
#X connect 3 0 4 0;
#X connect 3 0 4 1;
#X connect 4 0 1 0;
#X connect 6 0 8 0;
#X connect 7 0 1 1;
#X connect 8 0 0 0;
#X restore 261 1485 pd noiseburst;
#X obj 140 1548 +~;
#X obj 158 1788 *~ 0.8;
#X obj 139 1385 f 60;
#X obj 158 1598 bpar8~ 3;
#X obj 135 1831 dac~;
#X obj 181 1832 *~ 0.85;
#X obj 181 1856 delwrite~ a 400;
#N canvas 119 38 264 165 nwave 0;
#X obj 0 143 vline~;
#X obj 21 48 t a a;
#X obj 0 100 pack f f;
#X obj 51 75 + 1;
#X msg 0 122 1 1 0 \, -1 \$1 1 \, 0 1 \$2;
#X obj 21 0 inlet;
#X obj 10 168 delwrite~ i 40;
#X obj 116 167 delread~ i 40;
#X obj 0 233 outlet~;
#X obj 116 187 lop~ 100;
#X obj 116 0 inlet weaponheight;
#X msg 21 24 2;
#X connect 0 0 6 0;
#X connect 0 0 8 0;
#X connect 1 0 2 0;
#X connect 1 1 3 0;
#X connect 2 0 4 0;
#X connect 3 0 2 1;
#X connect 4 0 0 0;
#X connect 5 0 11 0;
#X connect 7 0 9 0;
#X connect 9 0 8 0;
#X connect 10 0 7 0;
#X connect 11 0 1 0;
#X restore 206 1722 pd nwave;
#X obj 323 1344 s trig;
#X obj 139 1324 trigger bang bang bang bang;
#X obj 245 1802 r trig;
#X obj 191 1669 r trig;
#X floatatom 243 1674 5 0 0 2 shockwave - -;
#X floatatom 257 1705 5 10 100 2 height - -;
#X obj 206 1691 del 44;
#X obj 246 1615 / 100;
#X text 205 306 creation arguments are OSC address;
#X text 207 267 set message to change OSC address;
#X text 162 81 1 Set IP Address : network address;
#X text 162 101 2 Set Ports (sending and listening);
#X text 162 120 3 Set OSC Addresses (routing osc data;
#X text 153 59 Key Settings;
#X floatatom 41 227 5 0 0 0 - - -;
#N canvas 482 147 1757 1067 oscReceive 0;
#X obj 55 184 netreceive -u -b;
#X msg 78 143 listen 0;
#X text 152 143 stop listening;
#X text 64 58 packets from network;
#X text 173 177 UDP packets \, binary output, f 13;
#X obj 45 314 print;
#X obj 45 272 oscparse;
#X text 150 114 listen on port 8000;
#X obj 177 269 oscparse;
#X obj 177 293 list trim;
#X floatatom 140 380 5 0 0 0 - - -;
#X text 241 267 Parse the OSC message;
#X obj 177 319 route unity;
#X msg 66 115 listen 8000;
#X obj 66 84 loadbang;
#X obj 139 357 route gunSound;
#X obj 140 407 s gunSound;
#X floatatom 268 379 5 0 0 0 - - -;
#X obj 267 356 route bossBoom;
#X obj 268 406 s bossBoom;
#X floatatom 388 378 5 0 0 0 - - -;
#X obj 387 355 route bossDamaged;
#X obj 388 405 s bossDamaged;
#X floatatom 523 377 5 0 0 0 - - -;
#X floatatom 629 375 5 0 0 0 - - -;
#X obj 522 354 route gameWon;
#X obj 523 404 s gameWon;
#X obj 629 402 s gameLost;
#X obj 628 352 route gameLost;
#X floatatom 741 373 5 0 0 0 - - -;
#X obj 740 350 route playerDamaged;
#X obj 741 400 s playerDamaged;
#X connect 0 0 6 0;
#X connect 0 0 8 0;
#X connect 1 0 0 0;
#X connect 6 0 5 0;
#X connect 8 0 9 0;
#X connect 9 0 12 0;
#X connect 10 0 16 0;
#X connect 12 0 15 0;
#X connect 12 0 18 0;
#X connect 12 0 21 0;
#X connect 12 0 25 0;
#X connect 12 0 28 0;
#X connect 12 0 30 0;
#X connect 13 0 0 0;
#X connect 14 0 13 0;
#X connect 15 0 10 0;
#X connect 17 0 19 0;
#X connect 18 0 17 0;
#X connect 20 0 22 0;
#X connect 21 0 20 0;
#X connect 23 0 26 0;
#X connect 24 0 27 0;
#X connect 25 0 23 0;
#X connect 28 0 24 0;
#X connect 29 0 31 0;
#X connect 30 0 29 0;
#X restore 45 175 pd oscReceive;
#X obj 46 69 tgl 15 0 empty empty empty 17 7 0 10 -262144 -1 -1 0 1
;
#X msg 45 94 \; pd dsp \$1;
#X obj 42 311 oscformat PD message;
#X msg 74 272 set PD message;
#N canvas 727 97 1053 731 oscSend 0;
#X msg 158 207 disconnect;
#X obj 61 253 netsend -u -b;
#X obj 59 55 list prepend send;
#X obj 59 80 list trim;
#X msg 150 175 connect 127.0.0.1 8001;
#X obj 59 29 r oscOut;
#X text 301 163 send to port 8001;
#X msg 147 148 connect localhost 8001;
#X obj 147 108 loadbang;
#X connect 0 0 1 0;
#X connect 2 0 3 0;
#X connect 3 0 1 0;
#X connect 4 0 1 0;
#X connect 5 0 2 0;
#X connect 7 0 1 0;
#X connect 8 0 7 0;
#X restore 45 151 pd oscSend;
#X obj 42 346 s oscOut;
#X obj 136 1211 r gunSound;
#X obj 909 192 bng 20 400 50 0 empty empty boom 0 -6 1 8 -262144 -33289
-33289;
#X obj 961 401 dac~;
#N canvas 131 35 293 592 pressurewave 0;
#X obj 149 525 *~;
#X obj 31 270 sig~ 1;
#X obj 31 292 -~;
#X obj 31 393 *~;
#X obj 1 462 lop~ 10000;
#X obj 31 313 *~ 500;
#X obj 31 415 hip~ 10;
#X obj 1 1 r~ \$0-feedback;
#X obj 1 25 delwrite~ \$0-variabledelay 10000;
#X obj 31 361 vd~ \$0-variabledelay;
#X obj 149 546 s~ \$0-feedback;
#X obj 91 245 -~ 0.0001;
#X obj 91 144 del 3;
#X obj 141 143 * 8000;
#X obj 1 246 inlet~ sound;
#X obj 121 73 inlet delay;
#X obj 141 119 inlet sweep;
#X obj 91 52 inlet trigger;
#X obj 165 478 inlet feedback;
#X obj 1 546 outlet~;
#X obj 121 97 * 100;
#X msg 91 202 1 \, 0 \$1;
#X obj 91 224 vline~;
#X obj 91 181 f 1000;
#X obj 165 502 * 0.99;
#X connect 0 0 10 0;
#X connect 1 0 2 0;
#X connect 2 0 5 0;
#X connect 3 0 6 0;
#X connect 4 0 0 0;
#X connect 4 0 19 0;
#X connect 5 0 9 0;
#X connect 6 0 4 0;
#X connect 7 0 8 0;
#X connect 9 0 3 0;
#X connect 11 0 2 1;
#X connect 11 0 3 1;
#X connect 12 0 23 0;
#X connect 13 0 23 1;
#X connect 14 0 4 0;
#X connect 15 0 20 0;
#X connect 16 0 13 0;
#X connect 17 0 12 0;
#X connect 18 0 24 0;
#X connect 20 0 12 1;
#X connect 21 0 22 0;
#X connect 22 0 11 0;
#X connect 23 0 21 0;
#X connect 24 0 0 1;
#X restore 892 557 pd pressurewave;
#X obj 960 325 clip~ -1 1;
#X obj 995 540 hsl 64 12 0 1 0 1 empty empty feedback 15 6 1 8 -262144
-1 -1 3150 1;
#X obj 1245 517 hsl 64 12 0 1 0 1 empty empty vol 15 6 1 8 -262144
-1 -1 3150 1;
#X obj 1226 534 *~;
#X obj 1226 556 throw~ out;
#X obj 1229 578 hsl 64 12 0 1 0 1 empty empty fx 15 6 1 8 -262144 -1
-1 3150 1;
#X obj 1211 593 *~;
#X obj 960 301 catch~ out;
#X obj 1251 258 hsl 64 12 0 1 0 1 empty empty vol 15 6 1 8 -262144
-1 -1 3150 1;
#X obj 1232 275 *~;
#X obj 1232 297 throw~ out;
#X obj 1225 322 hsl 64 12 0 1 0 1 empty empty fx 15 6 1 8 -262144 -1
-1 3150 1;
#X obj 1206 339 *~;
#X obj 1227 472 del 30;
#X obj 1280 432 hsl 64 12 0 1 0 1 empty empty delay 15 6 1 8 -262144
-1 -1 3150 1;
#N canvas 329 191 747 652 fireball 0;
#X obj -36 130 noise~;
#X obj -36 256 *~;
#X obj 39 -52 inlet trigger;
#X obj -36 276 outlet~;
#X obj -36 172 lop~ 70;
#X obj -36 193 lop~ 70;
#X obj -36 151 bp~ 70 1;
#X obj 71 102 *~;
#X obj -36 235 hip~ 5;
#X obj 71 58 line;
#X obj 71 79 sig~;
#X obj 71 144 lop~ 5;
#X obj 39 -31 trigger b b;
#X obj 31 123 + 40;
#X msg 111 28 1 100;
#X obj 39 -8 del 100;
#X msg 39 29 0 8000;
#X obj 31 102 * 100;
#X obj 71 124 *~;
#X obj -36 214 *~ 10;
#X connect 0 0 6 0;
#X connect 1 0 3 0;
#X connect 2 0 12 0;
#X connect 4 0 5 0;
#X connect 5 0 19 0;
#X connect 6 0 4 0;
#X connect 7 0 18 0;
#X connect 7 0 18 1;
#X connect 8 0 1 0;
#X connect 9 0 10 0;
#X connect 9 0 17 0;
#X connect 10 0 7 0;
#X connect 10 0 7 1;
#X connect 11 0 1 1;
#X connect 12 0 15 0;
#X connect 12 1 14 0;
#X connect 13 0 5 1;
#X connect 13 0 4 1;
#X connect 13 0 6 1;
#X connect 14 0 9 0;
#X connect 15 0 16 0;
#X connect 16 0 9 0;
#X connect 17 0 13 0;
#X connect 18 0 11 0;
#X connect 19 0 8 0;
#X restore 1227 494 pd fireball;
#N canvas 449 297 190 229 shockwave 0;
#X obj 2 170 cos~;
#X obj 2 87 line~;
#X obj 2 150 wrap~;
#X obj 2 110 *~;
#X obj 2 32 t b b;
#X msg 2 58 0 10;
#X obj 2 190 hip~ 1;
#X obj 2 3 inlet trigger;
#X obj 2 210 outlet~;
#X msg 37 59 1 0;
#X obj 2 130 *~ 5;
#X connect 0 0 6 0;
#X connect 1 0 3 0;
#X connect 1 0 3 1;
#X connect 2 0 0 0;
#X connect 3 0 10 0;
#X connect 4 0 5 0;
#X connect 4 1 9 0;
#X connect 5 0 1 0;
#X connect 6 0 8 0;
#X connect 7 0 4 0;
#X connect 9 0 1 0;
#X connect 10 0 2 0;
#X restore 1093 255 pd shockwave;
#X obj 1111 277 hsl 64 12 0 1 0 1 empty empty vol 15 6 1 8 -262144
-1 -1 3150 1;
#X obj 1092 294 *~;
#X obj 1092 316 throw~ out;
#X obj 970 522 hsl 64 12 0 1 0 1 empty empty sweep 15 6 1 8 -262144
-1 -1 3150 1;
#X obj 945 505 hsl 64 12 0 1 0 1 empty empty delay 15 6 1 8 -262144
-1 -1 3150 1;
#X obj 891 615 throw~ out;
#X obj 1343 176 hsl 64 12 0 1 0 1 empty empty spread 15 6 1 8 -262144
-1 -1 3150 1;
#N canvas 143 170 222 478 blast 0;
#X obj 3 -21 noise~;
#X obj 4 211 *~;
#X obj 4 90 clip~ -1 1;
#X obj 4 46 hip~ 20;
#X obj 4 191 bp~ 6000 1;
#X obj 105 97 *~;
#X obj 4 171 cos~;
#X obj 76 -67 -;
#X obj 28 -62 * 7000;
#X obj 76 -94 swap 1;
#X obj 4 271 hip~ 20;
#X obj 4 251 hip~ 20;
#X obj 4 231 hip~ 20;
#X obj 4 151 *~;
#X obj 20 131 +~ 0.5;
#X obj 4 24 vcf~ 7000 2;
#X obj 40 0 line~;
#X obj 6 -145 inlet;
#X obj 6 -124 t b f f;
#X msg 28 -41 \$1 30;
#X obj 4 68 *~ 50;
#X obj 76 -22 + 1.5;
#X obj 76 -43 * 3.5;
#X obj 4 311 outlet~;
#X obj 4 291 *~ 0.3;
#X obj 105 71 vline~;
#X msg 105 48 1 \, 0 \$1;
#X obj 105 24 f;
#X obj 137 -142 inlet decay;
#X obj 137 -41 * 7000;
#X obj 121 2 *;
#X obj 28 -92 pow 2;
#X connect 0 0 15 0;
#X connect 1 0 12 0;
#X connect 2 0 13 0;
#X connect 3 0 20 0;
#X connect 4 0 1 0;
#X connect 5 0 1 1;
#X connect 5 0 14 0;
#X connect 6 0 4 0;
#X connect 7 0 22 0;
#X connect 7 0 30 0;
#X connect 8 0 19 0;
#X connect 9 0 7 0;
#X connect 9 1 7 1;
#X connect 10 0 24 0;
#X connect 11 0 10 0;
#X connect 12 0 11 0;
#X connect 13 0 6 0;
#X connect 14 0 13 1;
#X connect 15 0 3 0;
#X connect 16 0 15 1;
#X connect 17 0 18 0;
#X connect 18 0 27 0;
#X connect 18 1 31 0;
#X connect 18 2 9 0;
#X connect 19 0 16 0;
#X connect 20 0 2 0;
#X connect 21 0 15 2;
#X connect 22 0 21 0;
#X connect 24 0 23 0;
#X connect 25 0 5 0;
#X connect 25 0 5 1;
#X connect 26 0 25 0;
#X connect 27 0 26 0;
#X connect 28 0 29 0;
#X connect 29 0 30 1;
#X connect 30 0 27 1;
#X connect 31 0 8 0;
#X restore 1233 231 pd blast;
#X obj 1071 591 *~;
#X obj 1103 389 hsl 64 12 0 1 0 1 empty empty delay 15 6 1 8 -262144
-1 -1 3150 1;
#X obj 1100 406 * 100;
#X obj 1131 516 hsl 64 12 0 1 0 1 empty empty width 15 6 1 8 -262144
-1 -1 3150 1;
#X obj 1090 576 hsl 64 12 0 1 0 1 empty empty vol 15 6 1 8 -262144
-1 -1 3150 1;
#X obj 1071 615 throw~ out;
#X obj 1206 361 throw~ fx;
#X obj 1210 617 throw~ fx;
#X obj 989 248 catch~ fx;
#X obj 960 271 s~ pfx;
#X obj 892 459 r~ pfx;
#X obj 1009 271 s~ cfx;
#X obj 1069 427 r~ cfx;
#X obj 891 594 *~;
#X obj 910 579 hsl 64 12 0 1 0 1 empty empty vol 15 6 1 8 -262144 -1
-1 3150 1;
#X obj 1099 494 del 30;
#X obj 1139 435 hsl 64 12 0 1 0 1 empty empty delay 15 6 1 8 -262144
-1 -1 3150 1;
#X obj 1136 452 * 200;
#X obj 1128 533 * 20;
#X obj 1287 215 hsl 64 12 0 1 0 1 empty empty decay 15 6 1 8 -262144
-1 -1 3150 1;
#X obj 1277 449 * 500;
#N canvas 585 385 245 430 blast 0;
#X obj 16 111 / 200;
#X obj 44 -71 del 80;
#X obj 120 11 random 5;
#X obj 120 33 + 25;
#X obj 120 -15 del 80;
#X obj 16 -131 random 8;
#X obj 16 -109 + 8;
#X obj 44 -48 random 10;
#X obj 44 -26 + 15;
#X obj 157 -132 random 100;
#X obj 81 -131 random 50;
#X obj 75 -173 t b b b b b;
#X obj 75 -202 del 30;
#X obj 112 -222 + 5;
#X obj 16 135 outlet noiseval;
#X obj 11 -272 inlet trigger;
#X obj 112 -273 inlet spread;
#X obj 158 -173 * 300;
#X obj 112 -243 * 100;
#X connect 0 0 14 0;
#X connect 1 0 4 0;
#X connect 1 0 7 0;
#X connect 2 0 3 0;
#X connect 3 0 0 0;
#X connect 4 0 2 0;
#X connect 5 0 6 0;
#X connect 6 0 0 0;
#X connect 7 0 8 0;
#X connect 8 0 0 0;
#X connect 9 0 4 1;
#X connect 10 0 1 1;
#X connect 11 0 1 0;
#X connect 11 1 5 0;
#X connect 11 2 10 0;
#X connect 11 3 9 0;
#X connect 12 0 11 0;
#X connect 13 0 12 1;
#X connect 15 0 12 0;
#X connect 16 0 17 0;
#X connect 16 0 18 0;
#X connect 17 0 10 1;
#X connect 17 0 9 1;
#X connect 18 0 13 0;
#X restore 1233 194 pd blast control;
#X obj 904 104 r bossBoom;
#X obj 909 216 s trig2;
#X obj 1233 170 r trig2;
#X obj 1227 449 r trig2;
#X obj 917 481 r trig2;
#X obj 1070 450 sdel2~;
#X obj 1070 554 combsweep2;
#X obj 339 1689 hsl 64 12 0 1 0 1 empty empty vol 15 6 1 8 -262144
-1 -1 6300 1;
#X obj 1093 233 r trig2;
#X obj 1099 472 r trig2;
#X obj 961 373 *~;
#X obj 859 349 hsl 64 12 0 1 0 1 empty empty vol 15 6 1 8 -262144 -1
-1 1600 1;
#X obj 128 648 r gameWon;
#X text 344 1066 inspired by: https://www.youtube.com/watch?v=gqpvIwYko3o&list=PLqJgTfn3kSMW3AAAl2liJRKd-7DhZwLlq&index=2&ab_channel=ReallyUsefulPlugins
;
#X obj 640 637 r gameLost;
#X text 19 1896 sourced from the sound library in PureData examples
;
#X obj 168 1086 dac~;
#X obj 167 1048 *~;
#X obj 18 893 mtof;
#X floatatom 18 861 5 0 0 0 - - -;
#X obj 162 911 mtof;
#X obj 228 1053 hsl 64 12 0 1 0 1 empty empty vol 15 6 1 8 -262144
-1 -1 1400 1;
#X floatatom 161 883 5 0 0 0 - - -;
#X obj 17 928 osc~;
#X obj 156 946 osc~;
#X obj 1540 722 bng 15 250 50 0 empty empty empty 17 7 0 10 -262144
-1 -1;
#X obj 1422 712 noise~;
#X obj 1409 938 *~;
#X obj 1354 1011 *~ 0.25;
#X obj 1355 1071 dac~;
#X floatatom 1587 828 5 0 0 0 - - -;
#N canvas 6467 1205 3840 1980 vol_env 0;
#X obj 298 282 vline~;
#X msg 287 212 0 \, 1 2 \, 0.4 \$1 2 \, 0 \$1 \$1;
#X obj 279 146 f 250;
#X obj 276 97 inlet;
#X obj 295 367 outlet~;
#X obj 368 117 inlet;
#X connect 0 0 4 0;
#X connect 1 0 0 0;
#X connect 2 0 1 0;
#X connect 3 0 2 0;
#X connect 5 0 2 1;
#X restore 1523 904 pd vol_env;
#N canvas 6469 1218 1916 1709 filters 0;
#X obj 311 175 inlet~;
#X obj 299 402 outlet~;
#X obj 285 216 biquad~ 1 -0.1 0.1 0.5 0.13;
#X obj 287 294 biquad~ 0.8 -0.24 0.5 -1.2 1;
#X obj 285 255 biquad~ -0.5 -0.15 0.73 -1.4 0.41;
#X obj 282 340 biquad~ 1.8 -0.89 0.94 -1.88 0.54;
#X connect 0 0 2 0;
#X connect 2 0 4 0;
#X connect 3 0 5 0;
#X connect 4 0 3 0;
#X connect 5 0 1 0;
#X restore 1320 858 pd filters;
#N canvas 6467 1205 3840 1980 six_pulse_osc 0;
#X obj 424 259 expr~ $v1 > 0.55;
#X obj 574 258 expr~ $v1 > 0.55;
#X obj 425 101 inlet;
#X obj 424 332 *~ 0.9;
#X obj 429 371 outlet~;
#X obj 422 216 phasor~;
#X obj 572 215 phasor~;
#X obj 578 150 * 1.342;
#X obj 731 258 expr~ $v1 > 0.55;
#X obj 729 215 phasor~;
#X obj 891 258 expr~ $v1 > 0.55;
#X obj 889 215 phasor~;
#X obj 1062 261 expr~ $v1 > 0.55;
#X obj 1069 218 phasor~;
#X obj 1231 263 expr~ $v1 > 0.55;
#X obj 1229 220 phasor~;
#X obj 735 150 * 1.2312;
#X obj 895 150 * 1.6532;
#X obj 1074 153 * 1.8523;
#X obj 1235 155 * 2.1523;
#X connect 0 0 3 0;
#X connect 1 0 3 0;
#X connect 2 0 5 0;
#X connect 2 0 7 0;
#X connect 2 0 16 0;
#X connect 2 0 17 0;
#X connect 2 0 18 0;
#X connect 2 0 19 0;
#X connect 3 0 4 0;
#X connect 5 0 0 0;
#X connect 6 0 1 0;
#X connect 7 0 6 0;
#X connect 8 0 3 0;
#X connect 9 0 8 0;
#X connect 10 0 3 0;
#X connect 11 0 10 0;
#X connect 12 0 3 0;
#X connect 13 0 12 0;
#X connect 14 0 3 0;
#X connect 15 0 14 0;
#X connect 16 0 9 0;
#X connect 17 0 11 0;
#X connect 18 0 13 0;
#X connect 19 0 15 0;
#X restore 1318 818 pd six_pulse_osc;
#X floatatom 1321 780 5 0 0 0 - - -;
#X obj 1909 666 bng 15 250 50 0 empty empty empty 17 7 0 10 -262144
-1 -1;
#X obj 1840 869 noise~;
#X obj 1840 1071 *~;
#X obj 1978 896 line;
#X floatatom 1923 924 5 0 0 0 - - -;
#X obj 2002 712 bng 15 250 50 0 empty empty empty 17 7 0 10 -262144
-1 -1;
#X obj 2063 794 bng 15 250 50 0 empty empty empty 17 7 0 10 -262144
-1 -1;
#X obj 1839 1166 dac~;
#X obj 1737 956 *~ 0.1;
#X obj 1841 902 *~ 1;
#X obj 1829 1014 clip~ -0.9 0.9;
#X msg 1897 715 1 50;
#X obj 1826 986 *~ 25;
#X msg 1979 755 0.5 250;
#X msg 2069 841 0 200;
#X obj 1694 1058 r glovolume;
#X floatatom 1694 1105 5 0 0 0 - - -;
#X text 1658 849 Used a high pass filter that reduces low frequencies
and keeps the higher ones.;
#X text 1878 1049 clip used to limit between these two limits;
#X text 1669 1024 Global volume control;
#X text 1895 952 band-pass filter used to keep everything within a
certain frequency range and reject everything else.;
#X obj 1988 682 delay 25;
#X obj 2058 759 delay 200;
#X obj 1734 918 hip~ 3000;
#X obj 1836 934 bp~ 150 5;
#X obj 1840 1121 *~ 0.5;
#X obj 1544 657 r playerDamaged;
#X obj 1834 611 r bossDamaged;
#X obj 423 1404 noise~;
#X obj 452 1601 vcf~;
#X msg 534 1564 50;
#X obj 545 1522 loadbang;
#X obj 834 1271 bng 15 250 50 0 empty empty empty 17 7 0 10 -262144
-1 -1;
#X msg 647 1353 1 \, 0 310;
#X obj 634 1385 vline~;
#X obj 638 1428 *~ -1;
#X obj 653 1469 *~;
#X obj 657 1508 *~;
#X obj 646 1543 *~ 3700;
#X obj 646 1580 +~;
#X obj 910 1296 del 130;
#X obj 709 1386 random 50;
#X obj 767 1460 +;
#X obj 859 1416 r base;
#X obj 855 1459 + 100;
#X floatatom 794 1507 5 0 0 0 - - -;
#X msg 758 1564 1 10 \, 0.6 100 20 \, 0 200 100;
#X obj 701 1634 bng 15 250 50 0 empty empty empty 17 7 0 10 -262144
-1 -1;
#X obj 768 1622 vline~;
#X obj 473 1686 random 1000;
#X obj 479 1732 + 3000;
#X floatatom 431 1777 5 0 0 0 - - -;
#X obj 511 1770 phasor~;
#X msg 640 1693 1 2;
#X obj 723 1691 del 2;
#X msg 709 1733 0 2;
#X obj 662 1778 line~;
#X obj 519 1819 *~;
#X obj 519 1873 *~ 0.02;
#X obj 908 1967 *~;
#X obj 761 1782 *~;
#X obj 640 1852 delwrite~ aa 1000;
#X obj 856 2046 delread~ aa 100;
#X obj 680 1951 *~ 0.2;
#X obj 825 2114 *~ 0.1;
#X obj 503 2014 delread~ aa 150;
#X obj 677 2074 *~ 0.08;
#X obj 496 2075 delread~ aa 170;
#X obj 721 2168 *~ 0.05;
#X obj 650 2118 delread~ aa 250;
#X obj 570 2141 *~ 0.06;
#X obj 1200 1326 bng 15 250 50 0 empty empty empty 17 7 0 10 -262144
-1 -1;
#X msg 1152 1362 1 \, 0 705;
#X obj 1141 1394 vline~;
#X obj 1154 1497 *~;
#X obj 1154 1533 *~;
#X obj 1150 1574 *~ 2000;
#X obj 1152 1627 +~;
#X obj 1335 1472 +;
#X obj 1314 1391 random 50;
#X obj 1425 1436 r base;
#X obj 1427 1477 + 20;
#X floatatom 1353 1510 5 0 0 0 - - -;
#X obj 1019 1395 noise~;
#X obj 1009 1441 lop~ 1000;
#X obj 1018 1676 vcf~;
#X obj 1058 1523 loadbang;
#X msg 1048 1573 70;
#X obj 1254 1640 vline~;
#X obj 1136 1720 *~;
#X obj 869 1612 loadbang;
#X obj 893 1652 tgl 15 0 empty empty empty 17 7 0 10 -262144 -1 -1
1 1;
#X obj 892 1702 metro 200;
#X obj 896 1748 random 100;
#X obj 904 1795 / 50;
#X obj 881 1837 + 20;
#X floatatom 960 1869 5 0 0 0 - - -;
#X obj 1155 1778 delwrite~ bb 1000;
#X obj 1257 1726 *~ 0.2;
#X obj 1328 1683 delread~ bb 100;
#X obj 1361 1774 *~ 0.04;
#X obj 1000 1776 *~ 0.1;
#X obj 1096 2015 loadbang;
#X obj 1111 2071 tgl 15 0 empty empty empty 17 7 0 10 -262144 -1 -1
1 1;
#X obj 1112 2114 metro 100;
#X obj 1113 2140 tabwrite~ array1;
#X obj 1321 1967 lop~ 7000;
#X obj 1318 2032 lop~ 7000;
#X obj 1313 2064 hip~ 20;
#X obj 1308 2106 hip~ 20;
#X obj 1317 2160 dac~;
#X obj 1153 1444 *~ -1;
#X obj 1315 1999 lop~ 7000;
#X msg 1265 1594 1 5 \, 0.8 100 20 \, 0 600 100;
#X obj 1006 1978 clip~ 0 1;
#X obj 423 1458 lop~ 100;
#X obj 431 1518 hip~ 500;
#X obj 1311 2134 *~;
#X obj 1220 2093 hsl 64 12 0 1 0 1 empty empty vol 15 6 1 8 -262144
-1 -1 6300 1;
#X obj 1457 1036 hsl 64 12 0 1 0 1 empty empty vol 15 6 1 8 -262144
-1 -1 1260 1;
#X obj 1321 724 loadbang;
#X obj 1588 767 loadbang;
#X obj 18 965 *~;
#X obj 159 979 *~;
#X obj 246 784 bng 15 250 50 0 empty empty oneshot 0 -6 1 8 -262144
-1 -1;
#X msg 198 939 1 5;
#X msg 239 937 0 500;
#X obj 204 970 line~;
#X obj 98 786 bng 15 250 50 0 empty empty oneshot 0 -6 1 8 -262144
-1 -1;
#X msg 60 917 1 5;
#X msg 101 915 0 500;
#X obj 66 948 line~;
#X obj 18 804 loadbang;
#X obj 160 830 loadbang;
#X obj 316 904 mtof;
#X floatatom 315 876 5 0 0 0 - - -;
#X obj 310 939 osc~;
#X obj 313 972 *~;
#X obj 400 777 bng 15 250 50 0 empty empty oneshot 0 -6 1 8 -262144
-1 -1;
#X msg 352 932 1 5;
#X msg 393 930 0 500;
#X obj 358 963 line~;
#X obj 314 823 loadbang;
#X msg 18 832 72;
#X msg 160 858 76;
#X msg 314 851 79;
#X obj 83 878 del 125;
#X obj 210 870 del 125;
#X obj 244 900 del 250;
#X obj 364 866 del 250;
#X obj 398 893 del 375;
#X obj 682 1057 dac~;
#X obj 681 1019 *~;
#X obj 532 864 mtof;
#X floatatom 532 832 5 0 0 0 - - -;
#X obj 676 882 mtof;
#X obj 742 1024 hsl 64 12 0 2 0 1 empty empty vol 15 6 1 8 -262144
-1 -1 1900 1;
#X floatatom 675 854 5 0 0 0 - - -;
#X obj 531 899 osc~;
#X obj 670 917 osc~;
#X obj 639 676 bng 15 250 50 0 empty empty oneshot 0 -6 1 8 -262144
-1 -1;
#X obj 532 936 *~;
#X obj 673 950 *~;
#X obj 760 755 bng 15 250 50 0 empty empty oneshot 0 -6 1 8 -262144
-1 -1;
#X msg 712 910 1 5;
#X obj 718 941 line~;
#X obj 612 757 bng 15 250 50 0 empty empty oneshot 0 -6 1 8 -262144
-1 -1;
#X msg 574 888 1 5;
#X obj 580 919 line~;
#X obj 532 775 loadbang;
#X obj 674 801 loadbang;
#X obj 830 875 mtof;
#X floatatom 829 847 5 0 0 0 - - -;
#X obj 824 910 osc~;
#X obj 827 943 *~;
#X obj 914 748 bng 15 250 50 0 empty empty oneshot 0 -6 1 8 -262144
-1 -1;
#X msg 866 903 1 5;
#X obj 872 934 line~;
#X obj 828 794 loadbang;
#X obj 987 876 mtof;
#X floatatom 986 848 5 0 0 0 - - -;
#X obj 981 911 osc~;
#X obj 984 944 *~;
#X obj 1071 749 bng 15 250 50 0 empty empty oneshot 0 -6 1 8 -262144
-1 -1;
#X msg 1023 904 1 5;
#X obj 1029 935 line~;
#X obj 985 795 loadbang;
#X msg 1064 902 0 400;
#X msg 615 886 0 300;
#X msg 753 908 0 300;
#X msg 907 901 0 300;
#X msg 532 803 60;
#X msg 674 829 59;
#X msg 828 822 58;
#X msg 985 823 57;
#X obj 597 849 del 100;
#X obj 724 841 del 425;
#X obj 758 871 del 525;
#X obj 878 837 del 850;
#X obj 912 864 del 950;
#X obj 1035 838 del 1300;
#X obj 1069 865 del 1500;
#X obj 134 695 bng 15 250 50 0 empty empty oneshot 0 -6 1 8 -262144
-1 -1;
#X obj 136 721 del 4000;
#X obj 639 700 del 1000;
#X obj 1452 975 loadbang;
#X msg 1454 1004 0.2;
#X msg 1321 752 150;
#X msg 1587 794 50;
#X obj 1132 51 loadbang;
#X msg 1132 85 0.5;
#X text 110 591 Game Winning Sound;
#X text 612 591 Game Losing Sound;
#X text 870 55 Boss Explosion Sound;
#X text 1522 615 Player Damage Sound;
#X text 1811 565 Boss Damage Sound;
#X text 113 1172 Player Shooting Sound;
#X obj 138 1244 bng 15 250 50 0 empty empty empty 17 7 0 10 -262144
-1 -1;
#X connect 1 0 27 0;
#X connect 2 0 18 0;
#X connect 3 0 5 0;
#X connect 4 0 3 1;
#X connect 5 0 17 0;
#X connect 6 0 5 1;
#X connect 7 0 13 0;
#X connect 8 0 7 1;
#X connect 9 0 21 2;
#X connect 10 0 19 0;
#X connect 11 0 33 0;
#X connect 12 0 13 1;
#X connect 13 0 15 0;
#X connect 14 0 20 1;
#X connect 15 0 2 1;
#X connect 16 0 2 0;
#X connect 17 0 18 1;
#X connect 18 0 21 0;
#X connect 19 0 0 0;
#X connect 19 0 23 0;
#X connect 19 0 22 0;
#X connect 20 0 16 0;
#X connect 21 0 10 0;
#X connect 23 0 24 0;
#X connect 25 0 19 0;
#X connect 27 0 20 0;
#X connect 27 1 7 0;
#X connect 27 2 3 0;
#X connect 27 3 26 0;
#X connect 28 0 0 0;
#X connect 29 0 32 0;
#X connect 30 0 32 1;
#X connect 31 0 25 1;
#X connect 32 0 25 0;
#X connect 33 0 10 1;
#X connect 40 0 44 0;
#X connect 42 0 43 0;
#X connect 44 0 47 0;
#X connect 45 0 44 0;
#X connect 48 0 351 0;
#X connect 49 0 100 0;
#X connect 51 0 90 0;
#X connect 52 0 109 1;
#X connect 53 0 51 4;
#X connect 54 0 55 1;
#X connect 55 0 56 0;
#X connect 57 0 58 1;
#X connect 58 0 84 0;
#X connect 59 0 52 0;
#X connect 60 0 61 1;
#X connect 61 0 62 0;
#X connect 63 0 64 1;
#X connect 64 0 83 0;
#X connect 65 0 67 0;
#X connect 66 0 97 0;
#X connect 67 0 55 0;
#X connect 67 0 58 0;
#X connect 68 0 70 0;
#X connect 69 0 70 1;
#X connect 70 0 71 0;
#X connect 72 0 51 3;
#X connect 73 0 51 2;
#X connect 75 0 98 1;
#X connect 76 0 61 0;
#X connect 76 0 64 0;
#X connect 77 0 82 0;
#X connect 78 0 79 0;
#X connect 79 0 104 1;
#X connect 80 0 95 0;
#X connect 81 0 77 1;
#X connect 85 0 86 0;
#X connect 85 0 88 0;
#X connect 87 0 51 0;
#X connect 89 0 104 0;
#X connect 90 0 74 0;
#X connect 91 0 90 1;
#X connect 92 0 105 1;
#X connect 93 0 94 0;
#X connect 94 0 92 1;
#X connect 96 0 76 1;
#X connect 97 0 65 1;
#X connect 98 0 76 0;
#X connect 99 0 49 0;
#X connect 101 0 98 0;
#X connect 102 0 65 0;
#X connect 103 0 51 1;
#X connect 104 0 105 0;
#X connect 105 0 77 0;
#X connect 106 0 19 1;
#X connect 107 0 68 0;
#X connect 108 0 92 0;
#X connect 109 0 50 0;
#X connect 109 0 50 1;
#X connect 110 0 109 0;
#X connect 111 0 336 0;
#X connect 113 0 294 0;
#X connect 116 0 115 0;
#X connect 116 0 115 1;
#X connect 117 0 122 0;
#X connect 118 0 117 0;
#X connect 119 0 123 0;
#X connect 120 0 116 1;
#X connect 121 0 119 0;
#X connect 122 0 256 0;
#X connect 123 0 257 0;
#X connect 124 0 130 0;
#X connect 124 0 134 0;
#X connect 125 0 131 0;
#X connect 126 0 127 0;
#X connect 127 0 128 0;
#X connect 127 0 128 1;
#X connect 129 0 130 1;
#X connect 130 0 126 1;
#X connect 131 0 126 0;
#X connect 132 0 131 0;
#X connect 133 0 132 0;
#X connect 134 0 145 0;
#X connect 134 0 155 0;
#X connect 135 0 143 0;
#X connect 135 0 157 0;
#X connect 136 0 159 0;
#X connect 137 0 138 0;
#X connect 138 0 136 1;
#X connect 139 0 147 0;
#X connect 139 0 156 0;
#X connect 140 0 148 0;
#X connect 142 0 144 0;
#X connect 143 0 158 0;
#X connect 144 0 136 0;
#X connect 145 0 137 0;
#X connect 146 0 144 0;
#X connect 147 0 137 0;
#X connect 148 0 137 0;
#X connect 149 0 150 0;
#X connect 150 0 159 0;
#X connect 155 0 139 0;
#X connect 156 0 140 0;
#X connect 157 0 142 0;
#X connect 158 0 146 0;
#X connect 159 0 141 0;
#X connect 159 0 141 1;
#X connect 160 0 124 0;
#X connect 161 0 134 0;
#X connect 162 0 249 0;
#X connect 163 0 194 0;
#X connect 164 0 163 2;
#X connect 165 0 164 0;
#X connect 166 0 167 0;
#X connect 166 0 175 0;
#X connect 166 0 180 0;
#X connect 166 0 181 0;
#X connect 166 0 174 0;
#X connect 167 0 168 0;
#X connect 168 0 169 0;
#X connect 169 0 170 0;
#X connect 169 0 170 1;
#X connect 170 0 171 0;
#X connect 170 0 171 1;
#X connect 171 0 172 0;
#X connect 172 0 173 0;
#X connect 173 0 163 1;
#X connect 174 0 205 0;
#X connect 175 0 176 0;
#X connect 176 0 179 0;
#X connect 176 0 173 1;
#X connect 177 0 178 0;
#X connect 178 0 176 1;
#X connect 180 0 182 0;
#X connect 181 0 183 0;
#X connect 181 0 187 0;
#X connect 181 0 188 0;
#X connect 182 0 194 1;
#X connect 183 0 184 0;
#X connect 184 0 185 0;
#X connect 184 0 186 0;
#X connect 186 0 191 0;
#X connect 187 0 190 0;
#X connect 188 0 189 0;
#X connect 189 0 190 0;
#X connect 190 0 191 1;
#X connect 191 0 192 0;
#X connect 192 0 193 0;
#X connect 193 0 248 0;
#X connect 194 0 195 0;
#X connect 194 0 193 0;
#X connect 196 0 198 0;
#X connect 196 0 193 0;
#X connect 196 0 197 0;
#X connect 197 0 195 0;
#X connect 199 0 200 0;
#X connect 199 0 193 0;
#X connect 201 0 204 0;
#X connect 201 0 193 0;
#X connect 203 0 202 0;
#X connect 203 0 193 0;
#X connect 205 0 206 0;
#X connect 205 0 213 0;
#X connect 205 0 247 0;
#X connect 206 0 207 0;
#X connect 207 0 245 0;
#X connect 208 0 209 0;
#X connect 208 0 209 1;
#X connect 209 0 210 0;
#X connect 210 0 211 0;
#X connect 211 0 219 1;
#X connect 212 0 216 0;
#X connect 212 0 211 1;
#X connect 213 0 212 0;
#X connect 214 0 215 0;
#X connect 215 0 212 1;
#X connect 217 0 218 0;
#X connect 218 0 219 0;
#X connect 219 0 223 0;
#X connect 220 0 221 0;
#X connect 221 0 219 2;
#X connect 222 0 223 1;
#X connect 223 0 231 0;
#X connect 223 0 235 0;
#X connect 224 0 225 0;
#X connect 225 0 226 0;
#X connect 226 0 227 0;
#X connect 227 0 228 0;
#X connect 228 0 229 0;
#X connect 229 0 230 0;
#X connect 229 0 193 1;
#X connect 232 0 231 0;
#X connect 233 0 232 0;
#X connect 233 0 234 0;
#X connect 234 0 193 0;
#X connect 235 0 193 0;
#X connect 236 0 237 0;
#X connect 237 0 238 0;
#X connect 238 0 239 0;
#X connect 240 0 246 0;
#X connect 241 0 242 0;
#X connect 242 0 243 0;
#X connect 243 0 251 1;
#X connect 245 0 208 0;
#X connect 245 0 208 1;
#X connect 246 0 241 0;
#X connect 247 0 222 0;
#X connect 248 0 239 0;
#X connect 248 0 240 0;
#X connect 249 0 250 0;
#X connect 250 0 163 0;
#X connect 251 0 244 0;
#X connect 251 0 244 1;
#X connect 252 0 251 0;
#X connect 253 0 127 1;
#X connect 254 0 341 0;
#X connect 255 0 342 0;
#X connect 256 0 116 0;
#X connect 257 0 116 0;
#X connect 258 0 281 0;
#X connect 258 0 282 0;
#X connect 259 0 261 0;
#X connect 260 0 261 0;
#X connect 261 0 257 1;
#X connect 262 0 263 0;
#X connect 262 0 280 0;
#X connect 263 0 265 0;
#X connect 264 0 265 0;
#X connect 265 0 256 1;
#X connect 266 0 277 0;
#X connect 267 0 278 0;
#X connect 268 0 270 0;
#X connect 269 0 268 0;
#X connect 270 0 271 0;
#X connect 271 0 116 0;
#X connect 272 0 283 0;
#X connect 272 0 284 0;
#X connect 273 0 275 0;
#X connect 274 0 275 0;
#X connect 275 0 271 1;
#X connect 276 0 279 0;
#X connect 277 0 118 0;
#X connect 278 0 121 0;
#X connect 279 0 269 0;
#X connect 280 0 264 0;
#X connect 281 0 259 0;
#X connect 282 0 260 0;
#X connect 283 0 273 0;
#X connect 284 0 274 0;
#X connect 286 0 285 0;
#X connect 286 0 285 1;
#X connect 287 0 292 0;
#X connect 288 0 287 0;
#X connect 289 0 293 0;
#X connect 290 0 286 1;
#X connect 291 0 289 0;
#X connect 292 0 295 0;
#X connect 293 0 296 0;
#X connect 294 0 338 0;
#X connect 295 0 286 0;
#X connect 296 0 286 0;
#X connect 297 0 330 0;
#X connect 297 0 331 0;
#X connect 298 0 299 0;
#X connect 299 0 296 1;
#X connect 300 0 301 0;
#X connect 300 0 329 0;
#X connect 301 0 302 0;
#X connect 302 0 295 1;
#X connect 303 0 325 0;
#X connect 304 0 326 0;
#X connect 305 0 307 0;
#X connect 306 0 305 0;
#X connect 307 0 308 0;
#X connect 308 0 286 0;
#X connect 309 0 332 0;
#X connect 309 0 333 0;
#X connect 310 0 311 0;
#X connect 311 0 308 1;
#X connect 312 0 327 0;
#X connect 313 0 315 0;
#X connect 314 0 313 0;
#X connect 315 0 316 0;
#X connect 316 0 286 0;
#X connect 317 0 334 0;
#X connect 317 0 335 0;
#X connect 318 0 319 0;
#X connect 319 0 316 1;
#X connect 320 0 328 0;
#X connect 321 0 319 0;
#X connect 322 0 302 0;
#X connect 323 0 299 0;
#X connect 324 0 311 0;
#X connect 325 0 288 0;
#X connect 326 0 291 0;
#X connect 327 0 306 0;
#X connect 328 0 314 0;
#X connect 329 0 322 0;
#X connect 330 0 298 0;
#X connect 331 0 323 0;
#X connect 332 0 310 0;
#X connect 333 0 324 0;
#X connect 334 0 318 0;
#X connect 335 0 321 0;
#X connect 336 0 337 0;
#X connect 337 0 262 0;
#X connect 337 0 258 0;
#X connect 337 0 272 0;
#X connect 338 0 300 0;
#X connect 338 0 297 0;
#X connect 338 0 309 0;
#X connect 338 0 317 0;
#X connect 339 0 340 0;
#X connect 340 0 253 0;
#X connect 341 0 133 0;
#X connect 342 0 129 0;
#X connect 343 0 344 0;
#X connect 344 0 75 0;
#X connect 344 0 96 0;
#X connect 344 0 69 0;
#X connect 344 0 60 0;
#X connect 344 0 63 0;
#X connect 344 0 78 0;
#X connect 344 0 93 0;
#X connect 344 0 80 0;
#X connect 344 0 81 0;
#X connect 344 0 66 0;
#X connect 344 0 54 0;
#X connect 344 0 57 0;
#X connect 344 0 73 0;
#X connect 344 0 72 0;
#X connect 344 0 53 0;
#X connect 344 0 91 0;
#X connect 351 0 1 0;
#X connect 351 0 166 0;
