#N canvas -12 0 1596 1599 12;
#X obj 742 257 dac~;
#X obj 209 1095 tabwrite~ c;
#X obj 103 565 bng 15 250 50 0 empty empty oneshot 0 -6 1 8 -262144
-1 -1;
#X obj 103 789 +~;
#X obj 225 660 del 12;
#X floatatom 262 643 5 0 0 2 noise - -;
#X obj 225 700 f 100;
#X floatatom 255 681 5 0 0 0 - - -;
#X obj 798 159 hip~ 100;
#X obj 798 137 delread~ a 100;
#X obj 164 657 del 12;
#X floatatom 201 640 5 0 0 2 barrel - -;
#X obj 592 280 bp-programmer;
#X floatatom 173 841 5 0 0 0 - - -;
#X obj 592 240 bng 15 250 50 0 empty empty empty 0 -6 0 8 -262144 -1
-1;
#N canvas 29 29 205 209 random 0;
#X obj 3 189 outlet;
#X obj 3 165 list append;
#X obj 176 147 t l;
#X obj 75 141 list prepend;
#X obj 75 76 until;
#X msg 74 53 8;
#X obj 76 97 random 3000;
#X obj 75 117 + 100;
#X obj 52 1 inlet;
#X obj 52 26 t b b b;
#X connect 1 0 0 0;
#X connect 2 0 3 1;
#X connect 3 0 2 0;
#X connect 3 0 1 1;
#X connect 4 0 6 0;
#X connect 5 0 4 0;
#X connect 6 0 7 0;
#X connect 7 0 3 0;
#X connect 8 0 9 0;
#X connect 9 0 1 0;
#X connect 9 1 5 0;
#X connect 9 2 3 1;
#X restore 592 259 pd random 800 to 5k;
#X obj 122 904 *~;
#X floatatom 210 861 5 0 100 0 - - -;
#X floatatom 187 680 5 0 0 0 - - -;
#X obj 164 702 f 20;
#X floatatom 126 633 5 0 0 2 chirptime - -;
#N canvas 0 0 180 260 barrel 0;
#X obj 54 41 vline~;
#X obj -1 179 cos~;
#X obj -1 157 -~ 0.25;
#X obj -1 135 wrap~;
#X obj -1 113 pow~;
#X obj 38 217 *~;
#X obj 23 92 sig~ 2;
#X msg 54 21 0 \, 1 0 0 \, 0 \$1 0;
#X obj -1 72 *~ 2;
#X obj 54 0 inlet;
#X obj 38 240 outlet~;
#X connect 0 0 8 0;
#X connect 0 0 5 1;
#X connect 1 0 5 0;
#X connect 2 0 1 0;
#X connect 3 0 2 0;
#X connect 4 0 3 0;
#X connect 5 0 10 0;
#X connect 6 0 4 1;
#X connect 7 0 0 0;
#X connect 8 0 4 0;
#X connect 9 0 7 0;
#X restore 164 726 pd barrel;
#N canvas 0 0 126 206 shell 0;
#X obj 3 162 cos~;
#X obj 3 40 vline~;
#X obj 3 141 -~ 0.25;
#X obj 3 121 wrap~;
#X obj 3 101 pow~;
#X obj 3 60 *~ 1.05;
#X obj 25 81 sig~ 64;
#X obj 3 -2 inlet;
#X obj 3 185 outlet~;
#X msg 3 19 0 \, 1 0 0 \, 0 \$1;
#X connect 0 0 8 0;
#X connect 1 0 5 0;
#X connect 2 0 0 0;
#X connect 3 0 2 0;
#X connect 4 0 3 0;
#X connect 5 0 4 0;
#X connect 6 0 4 1;
#X connect 7 0 9 0;
#X connect 9 0 1 0;
#X restore 103 762 pd shell;
#N canvas 497 98 272 275 noiseburst 0;
#X obj 104 79 vline~;
#X obj 104 180 *~;
#X obj 104 104 *~;
#X obj 104 129 *~;
#X obj 104 154 *~;
#X obj 104 317 outlet~;
#X obj 104 28 inlet;
#N canvas 518 256 450 300 nwavenoise 0;
#X obj 131 200 max~;
#X obj 131 167 -~ 1;
#X obj 186 166 *~ -1;
#X obj 131 250 +~ 0.5;
#X obj 131 225 *~ 2;
#X obj 128 20 noise~;
#X obj 130 129 phasor~;
#X obj 131 281 outlet~;
#X obj 128 65 hip~ 40;
#X obj 130 108 +~ 100;
#X obj 128 87 *~ 5000;
#X obj 127 43 bp~ 3000 2;
#X connect 0 0 4 0;
#X connect 1 0 0 0;
#X connect 2 0 0 1;
#X connect 3 0 7 0;
#X connect 4 0 3 0;
#X connect 5 0 11 0;
#X connect 6 0 1 0;
#X connect 6 0 2 0;
#X connect 8 0 10 0;
#X connect 9 0 6 0;
#X connect 10 0 9 0;
#X connect 11 0 8 0;
#X restore 131 155 pd nwavenoise;
#X msg 104 56 0 \, 1 0 7 \, 0 \$1 7;
#X connect 0 0 2 0;
#X connect 0 0 2 1;
#X connect 1 0 5 0;
#X connect 2 0 3 0;
#X connect 2 0 3 1;
#X connect 3 0 4 0;
#X connect 3 0 4 1;
#X connect 4 0 1 0;
#X connect 6 0 8 0;
#X connect 7 0 1 1;
#X connect 8 0 0 0;
#X restore 225 750 pd noiseburst;
#X obj 104 813 +~;
#X obj 122 1053 *~ 0.8;
#X obj 103 650 f 60;
#X floatatom 798 107 5 20 400 0 - - -;
#X obj 122 863 bpar8~ 3;
#X obj 99 1096 dac~;
#X obj 145 1097 *~ 0.85;
#X obj 145 1121 delwrite~ a 400;
#X obj 741 205 combsweep;
#N canvas 119 38 246 251 nwave 0;
#X obj 0 143 vline~;
#X obj 21 48 t a a;
#X obj 0 100 pack f f;
#X obj 51 75 + 1;
#X msg 0 122 1 1 0 \, -1 \$1 1 \, 0 1 \$2;
#X obj 21 0 inlet;
#X obj 10 168 delwrite~ i 40;
#X obj 116 167 delread~ i 40;
#X obj 0 233 outlet~;
#X obj 116 187 lop~ 100;
#X obj 116 0 inlet weaponheight;
#X msg 21 24 2;
#X connect 0 0 6 0;
#X connect 0 0 8 0;
#X connect 1 0 2 0;
#X connect 1 1 3 0;
#X connect 2 0 4 0;
#X connect 3 0 2 1;
#X connect 4 0 0 0;
#X connect 5 0 11 0;
#X connect 7 0 9 0;
#X connect 9 0 8 0;
#X connect 10 0 7 0;
#X connect 11 0 1 0;
#X restore 215 985 pd nwave;
#X obj 287 609 s trig;
#X obj 103 589 trigger bang bang bang bang;
#X obj 209 1067 r trig;
#X obj 741 159 r trig;
#X text 784 87 optional environment;
#X obj 741 229 rev3~ 100 60 5000 10;
#X obj 741 182 del 100;
#X obj 200 932 r trig;
#X floatatom 252 937 5 0 0 2 shockwave - -;
#X obj 147 821 r body formant;
#X obj 592 318 s body formant;
#X floatatom 266 968 5 10 100 2 height - -;
#X obj 215 954 del 44;
#X obj 631 56 reload;
#X obj 631 79 s~ body;
#X obj 631 36 bng 15 250 50 0 empty empty reload 0 -8 1 8 -262144 -1
-1;
#N canvas 0 0 450 300 mux 0;
#X obj 243 185 *~;
#X obj 273 185 *~;
#X obj 207 102 inlet~;
#X obj 262 102 inlet~;
#X obj 231 237 outlet~;
#X obj 287 147 == 0;
#X obj 112 119 tgl 15 0 empty empty empty 0 -6 0 8 -262144 -1 -1 0
1;
#X connect 0 0 4 0;
#X connect 1 0 4 0;
#X connect 2 0 0 0;
#X connect 3 0 1 0;
#X connect 5 0 0 1;
#X connect 6 0 5 0;
#X connect 6 0 1 1;
#X coords 0 -1 1 1 40 40 1 100 100;
#X restore 661 106 pd mux;
#N canvas 96 399 733 584 tanh 0;
#X obj 241 65 inlet~;
#X obj 240 148 *~;
#X obj 165 265 /~;
#X obj 165 350 /~;
#X obj 165 288 /~;
#X obj 165 321 /~;
#X obj 240 206 +~ 1;
#X obj 165 436 outlet~;
#X obj 287 205 +~ 3;
#X obj 337 206 +~ 5;
#X obj 384 205 +~ 7;
#X obj 433 205 +~ 9;
#X obj 165 372 /~;
#X text 276 114 2/pi;
#X obj 166 399 *~ 2700;
#X obj 241 89 *~ 0.6;
#X connect 0 0 15 0;
#X connect 1 0 6 0;
#X connect 1 0 8 0;
#X connect 1 0 9 0;
#X connect 1 0 10 0;
#X connect 1 0 11 0;
#X connect 2 0 4 0;
#X connect 3 0 12 0;
#X connect 4 0 5 0;
#X connect 5 0 3 0;
#X connect 6 0 2 1;
#X connect 8 0 4 1;
#X connect 9 0 5 1;
#X connect 10 0 3 1;
#X connect 11 0 12 1;
#X connect 12 0 14 0;
#X connect 14 0 7 0;
#X connect 15 0 1 1;
#X connect 15 0 1 0;
#X connect 15 0 2 0;
#X restore 614 159 pd tanh tgrill;
#N canvas 0 0 713 460 tanh 0;
#X obj 241 65 inlet~;
#X text 493 89 __;
#X text 575 89 __;
#X text 527 89 __;
#X text 626 89 __;
#X text 493 106 1 +;
#X text 529 106 3 +;
#X text 577 106 5 +;
#X text 627 106 7 +;
#X text 443 32 As a continued fraction;
#X obj 240 148 *~;
#X obj 165 265 /~;
#X obj 165 350 /~;
#X obj 165 288 /~;
#X obj 165 321 /~;
#X text 427 78 tanh(z) = z z^2 4z^2 9z^2 ...;
#X obj 292 175 *~ 4;
#X obj 291 206 +~ 3;
#X obj 335 174 *~ 9;
#X obj 334 205 +~ 5;
#X obj 375 175 *~ 16;
#X obj 374 205 +~ 7;
#X obj 240 206 +~ 1;
#X obj 165 401 outlet~;
#X obj 165 372 *~ 576;
#X text 276 114 1/pi;
#X obj 241 89 *~ 0.30831;
#X connect 0 0 26 0;
#X connect 10 0 16 0;
#X connect 10 0 18 0;
#X connect 10 0 20 0;
#X connect 10 0 22 0;
#X connect 11 0 13 0;
#X connect 12 0 24 0;
#X connect 13 0 14 0;
#X connect 14 0 12 0;
#X connect 16 0 17 0;
#X connect 17 0 13 1;
#X connect 18 0 19 0;
#X connect 19 0 14 1;
#X connect 20 0 21 0;
#X connect 21 0 12 1;
#X connect 22 0 11 1;
#X connect 24 0 23 0;
#X connect 26 0 10 1;
#X connect 26 0 10 0;
#X connect 26 0 11 0;
#X restore 595 189 pd tanh afarnell;
#X obj 210 880 / 100;
#X text 175 310 creation arguments are OSC address;
#X text 177 271 set message to change OSC address;
#X text 162 81 1 Set IP Address : network address;
#X text 162 101 2 Set Ports (sending and listening);
#X text 162 120 3 Set OSC Addresses (routing osc data;
#X text 153 59 Key Settings;
#X floatatom 41 227 5 0 0 0 - - -;
#N canvas 481 169 1000 1000 oscReceive 0;
#X obj 55 184 netreceive -u -b;
#X msg 78 143 listen 0;
#X text 152 143 stop listening;
#X text 64 58 packets from network;
#X text 173 177 UDP packets \, binary output, f 13;
#X obj 45 314 print;
#X obj 45 272 oscparse;
#X text 150 114 listen on port 8000;
#X obj 177 269 oscparse;
#X obj 177 293 list trim;
#X floatatom 140 380 5 0 0 0 - - -;
#X text 241 267 Parse the OSC message;
#X obj 177 319 route unity;
#X msg 66 115 listen 8000;
#X obj 66 84 loadbang;
#X obj 139 357 route gunSound;
#X obj 140 407 s gunSound;
#X floatatom 268 379 5 0 0 0 - - -;
#X obj 267 356 route bossBoom;
#X obj 268 406 s bossBoom;
#X connect 0 0 6 0;
#X connect 0 0 8 0;
#X connect 1 0 0 0;
#X connect 6 0 5 0;
#X connect 8 0 9 0;
#X connect 9 0 12 0;
#X connect 10 0 16 0;
#X connect 12 0 15 0;
#X connect 12 0 18 0;
#X connect 13 0 0 0;
#X connect 14 0 13 0;
#X connect 15 0 10 0;
#X connect 17 0 19 0;
#X connect 18 0 17 0;
#X restore 45 175 pd oscReceive;
#X obj 46 69 tgl 15 0 empty empty empty 17 7 0 10 -262144 -1 -1 0 1
;
#X msg 45 94 \; pd dsp \$1;
#X obj 42 311 oscformat PD message;
#X msg 74 272 set PD message;
#N canvas 727 97 1053 731 oscSend 0;
#X msg 158 207 disconnect;
#X obj 61 253 netsend -u -b;
#X obj 59 55 list prepend send;
#X obj 59 80 list trim;
#X msg 150 175 connect 127.0.0.1 8001;
#X obj 59 29 r oscOut;
#X text 301 163 send to port 8001;
#X msg 147 148 connect localhost 8001;
#X obj 147 108 loadbang;
#X connect 0 0 1 0;
#X connect 2 0 3 0;
#X connect 3 0 1 0;
#X connect 4 0 1 0;
#X connect 5 0 2 0;
#X connect 7 0 1 0;
#X connect 8 0 7 0;
#X restore 45 151 pd oscSend;
#X obj 42 346 s oscOut;
#X obj 90 517 r gunSound;
#X obj 554 654 bng 20 400 50 0 empty empty boom 0 -6 1 8 -262144 -33289
-33289;
#X obj 861 1077 dac~;
#N canvas 131 35 293 592 pressurewave 0;
#X obj 149 525 *~;
#X obj 31 270 sig~ 1;
#X obj 31 292 -~;
#X obj 31 393 *~;
#X obj 1 462 lop~ 10000;
#X obj 31 313 *~ 500;
#X obj 31 415 hip~ 10;
#X obj 1 1 r~ \$0-feedback;
#X obj 1 25 delwrite~ \$0-variabledelay 10000;
#X obj 31 361 vd~ \$0-variabledelay;
#X obj 149 546 s~ \$0-feedback;
#X obj 91 245 -~ 0.0001;
#X obj 91 144 del 3;
#X obj 141 143 * 8000;
#X obj 1 246 inlet~ sound;
#X obj 121 73 inlet delay;
#X obj 141 119 inlet sweep;
#X obj 91 52 inlet trigger;
#X obj 165 478 inlet feedback;
#X obj 1 546 outlet~;
#X obj 121 97 * 100;
#X msg 91 202 1 \, 0 \$1;
#X obj 91 224 vline~;
#X obj 91 181 f 1000;
#X obj 165 502 * 0.99;
#X connect 0 0 10 0;
#X connect 1 0 2 0;
#X connect 2 0 5 0;
#X connect 3 0 6 0;
#X connect 4 0 0 0;
#X connect 4 0 19 0;
#X connect 5 0 9 0;
#X connect 6 0 4 0;
#X connect 7 0 8 0;
#X connect 9 0 3 0;
#X connect 11 0 2 1;
#X connect 11 0 3 1;
#X connect 12 0 23 0;
#X connect 13 0 23 1;
#X connect 14 0 4 0;
#X connect 15 0 20 0;
#X connect 16 0 13 0;
#X connect 17 0 12 0;
#X connect 18 0 24 0;
#X connect 20 0 12 1;
#X connect 21 0 22 0;
#X connect 22 0 11 0;
#X connect 23 0 21 0;
#X connect 24 0 0 1;
#X restore 537 1019 pd pressurewave;
#X obj 861 1051 clip~ -1 1;
#X obj 640 1002 hsl 64 12 0 1 0 1 empty empty feedback 15 6 1 8 -262144
-1 -1 9200 1;
#X obj 835 722 hsl 64 12 0 1 0 1 empty empty vol 15 6 1 8 -262144 -1
-1 5800 1;
#X obj 816 739 *~;
#X obj 816 761 throw~ out;
#X obj 819 783 hsl 64 12 0 1 0 1 empty empty fx 15 6 1 8 -262144 -1
-1 12600 1;
#X obj 800 800 *~;
#X obj 861 1027 catch~ out;
#X obj 667 719 hsl 64 12 0 1 0 1 empty empty vol 15 6 1 8 -262144 -1
-1 12600 1;
#X obj 648 736 *~;
#X obj 648 758 throw~ out;
#X obj 641 783 hsl 64 12 0 1 0 1 empty empty fx 15 6 1 8 -262144 -1
-1 4600 1;
#X obj 622 800 *~;
#X obj 534 739 r trig;
#X obj 817 677 del 30;
#X obj 870 637 hsl 64 12 0 1 0 1 empty empty delay 15 6 1 8 -262144
-1 -1 2800 1;
#N canvas 329 191 208 358 fireball 0;
#X obj -36 130 noise~;
#X obj -36 256 *~;
#X obj 39 -52 inlet trigger;
#X obj -36 276 outlet~;
#X obj -36 172 lop~ 70;
#X obj -36 193 lop~ 70;
#X obj -36 151 bp~ 70 1;
#X obj 71 102 *~;
#X obj -36 235 hip~ 5;
#X obj 71 58 line;
#X obj 71 79 sig~;
#X obj 71 144 lop~ 5;
#X obj 39 -31 trigger b b;
#X obj 31 123 + 40;
#X msg 111 28 1 100;
#X obj 39 -8 del 100;
#X msg 39 29 0 8000;
#X obj 31 102 * 100;
#X obj 71 124 *~;
#X obj -36 214 *~ 10;
#X connect 0 0 6 0;
#X connect 1 0 3 0;
#X connect 2 0 12 0;
#X connect 4 0 5 0;
#X connect 5 0 19 0;
#X connect 6 0 4 0;
#X connect 7 0 18 0;
#X connect 7 0 18 1;
#X connect 8 0 1 0;
#X connect 9 0 10 0;
#X connect 9 0 17 0;
#X connect 10 0 7 0;
#X connect 10 0 7 1;
#X connect 11 0 1 1;
#X connect 12 0 15 0;
#X connect 12 1 14 0;
#X connect 13 0 5 1;
#X connect 13 0 4 1;
#X connect 13 0 6 1;
#X connect 14 0 9 0;
#X connect 15 0 16 0;
#X connect 16 0 9 0;
#X connect 17 0 13 0;
#X connect 18 0 11 0;
#X connect 19 0 8 0;
#X restore 817 699 pd fireball;
#N canvas 449 297 190 229 shockwave 0;
#X obj 2 170 cos~;
#X obj 2 87 line~;
#X obj 2 150 wrap~;
#X obj 2 110 *~;
#X obj 2 32 t b b;
#X msg 2 58 0 10;
#X obj 2 190 hip~ 1;
#X obj 2 3 inlet trigger;
#X obj 2 210 outlet~;
#X msg 37 59 1 0;
#X obj 2 130 *~ 5;
#X connect 0 0 6 0;
#X connect 1 0 3 0;
#X connect 1 0 3 1;
#X connect 2 0 0 0;
#X connect 3 0 10 0;
#X connect 4 0 5 0;
#X connect 4 1 9 0;
#X connect 5 0 1 0;
#X connect 6 0 8 0;
#X connect 7 0 4 0;
#X connect 9 0 1 0;
#X connect 10 0 2 0;
#X restore 534 761 pd shockwave;
#X obj 552 783 hsl 64 12 0 1 0 1 empty empty vol 15 6 1 8 -262144 -1
-1 12600 1;
#X obj 533 800 *~;
#X obj 533 822 throw~ out;
#X obj 615 984 hsl 64 12 0 1 0 1 empty empty sweep 15 6 1 8 -262144
-1 -1 9400 1;
#X obj 590 967 hsl 64 12 0 1 0 1 empty empty delay 15 6 1 8 -262144
-1 -1 8400 1;
#X obj 536 1077 throw~ out;
#X obj 759 637 hsl 64 12 0 1 0 1 empty empty spread 15 6 1 8 -262144
-1 -1 4400 1;
#N canvas 143 170 222 478 blast 0;
#X obj 3 -21 noise~;
#X obj 4 211 *~;
#X obj 4 90 clip~ -1 1;
#X obj 4 46 hip~ 20;
#X obj 4 191 bp~ 6000 1;
#X obj 105 97 *~;
#X obj 4 171 cos~;
#X obj 76 -67 -;
#X obj 28 -62 * 7000;
#X obj 76 -94 swap 1;
#X obj 4 271 hip~ 20;
#X obj 4 251 hip~ 20;
#X obj 4 231 hip~ 20;
#X obj 4 151 *~;
#X obj 20 131 +~ 0.5;
#X obj 4 24 vcf~ 7000 2;
#X obj 40 0 line~;
#X obj 6 -145 inlet;
#X obj 6 -124 t b f f;
#X msg 28 -41 \$1 30;
#X obj 4 68 *~ 50;
#X obj 76 -22 + 1.5;
#X obj 76 -43 * 3.5;
#X obj 4 311 outlet~;
#X obj 4 291 *~ 0.3;
#X obj 105 71 vline~;
#X msg 105 48 1 \, 0 \$1;
#X obj 105 24 f;
#X obj 137 -142 inlet decay;
#X obj 137 -41 * 7000;
#X obj 121 2 *;
#X obj 28 -92 pow 2;
#X connect 0 0 15 0;
#X connect 1 0 12 0;
#X connect 2 0 13 0;
#X connect 3 0 20 0;
#X connect 4 0 1 0;
#X connect 5 0 1 1;
#X connect 5 0 14 0;
#X connect 6 0 4 0;
#X connect 7 0 22 0;
#X connect 7 0 30 0;
#X connect 8 0 19 0;
#X connect 9 0 7 0;
#X connect 9 1 7 1;
#X connect 10 0 24 0;
#X connect 11 0 10 0;
#X connect 12 0 11 0;
#X connect 13 0 6 0;
#X connect 14 0 13 1;
#X connect 15 0 3 0;
#X connect 16 0 15 1;
#X connect 17 0 18 0;
#X connect 18 0 27 0;
#X connect 18 1 31 0;
#X connect 18 2 9 0;
#X connect 19 0 16 0;
#X connect 20 0 2 0;
#X connect 21 0 15 2;
#X connect 22 0 21 0;
#X connect 24 0 23 0;
#X connect 25 0 5 0;
#X connect 25 0 5 1;
#X connect 26 0 25 0;
#X connect 27 0 26 0;
#X connect 28 0 29 0;
#X connect 29 0 30 1;
#X connect 30 0 27 1;
#X connect 31 0 8 0;
#X restore 649 692 pd blast;
#X obj 716 1053 *~;
#X obj 748 851 hsl 64 12 0 1 0 1 empty empty delay 15 6 1 8 -262144
-1 -1 6400 1;
#X obj 745 868 * 100;
#X obj 776 978 hsl 64 12 0 1 0 1 empty empty width 15 6 1 8 -262144
-1 -1 8600 1;
#X obj 744 934 r trig;
#X obj 735 1038 hsl 64 12 0 1 0 1 empty empty vol 15 6 1 8 -262144
-1 -1 8200 1;
#X obj 716 1077 throw~ out;
#X obj 622 822 throw~ fx;
#X obj 800 822 throw~ fx;
#X obj 890 974 catch~ fx;
#X obj 861 997 s~ pfx;
#X obj 537 921 r~ pfx;
#X obj 910 997 s~ cfx;
#X obj 714 889 r~ cfx;
#X obj 536 1056 *~;
#X obj 555 1041 hsl 64 12 0 1 0 1 empty empty vol 15 6 1 8 -262144
-1 -1 4800 1;
#X obj 744 956 del 30;
#X obj 784 897 hsl 64 12 0 1 0 1 empty empty delay 15 6 1 8 -262144
-1 -1 5800 1;
#X obj 781 914 * 200;
#X obj 773 995 * 20;
#X obj 703 676 hsl 64 12 0 1 0 1 empty empty decay 15 6 1 8 -262144
-1 -1 5000 1;
#X obj 867 654 * 500;
#N canvas 585 385 245 430 blast 0;
#X obj 16 111 / 200;
#X obj 44 -71 del 80;
#X obj 120 11 random 5;
#X obj 120 33 + 25;
#X obj 120 -15 del 80;
#X obj 16 -131 random 8;
#X obj 16 -109 + 8;
#X obj 44 -48 random 10;
#X obj 44 -26 + 15;
#X obj 157 -132 random 100;
#X obj 81 -131 random 50;
#X obj 75 -173 t b b b b b;
#X obj 75 -202 del 30;
#X obj 112 -222 + 5;
#X obj 16 135 outlet noiseval;
#X obj 11 -272 inlet trigger;
#X obj 112 -273 inlet spread;
#X obj 158 -173 * 300;
#X obj 112 -243 * 100;
#X connect 0 0 14 0;
#X connect 1 0 4 0;
#X connect 1 0 7 0;
#X connect 2 0 3 0;
#X connect 3 0 0 0;
#X connect 4 0 2 0;
#X connect 5 0 6 0;
#X connect 6 0 0 0;
#X connect 7 0 8 0;
#X connect 8 0 0 0;
#X connect 9 0 4 1;
#X connect 10 0 1 1;
#X connect 11 0 1 0;
#X connect 11 1 5 0;
#X connect 11 2 10 0;
#X connect 11 3 9 0;
#X connect 12 0 11 0;
#X connect 13 0 12 1;
#X connect 15 0 12 0;
#X connect 16 0 17 0;
#X connect 16 0 18 0;
#X connect 17 0 10 1;
#X connect 17 0 9 1;
#X connect 18 0 13 0;
#X restore 649 655 pd blast control;
#X obj 544 563 r bossBoom;
#X obj 554 678 s trig2;
#X obj 649 631 r trig2;
#X obj 817 654 r trig2;
#X obj 562 943 r trig2;
#X obj 715 912 sdel2~;
#X obj 715 1016 combsweep2;
#X connect 2 0 35 0;
#X connect 3 0 24 0;
#X connect 4 0 6 0;
#X connect 5 0 4 1;
#X connect 6 0 23 0;
#X connect 7 0 6 1;
#X connect 8 0 32 1;
#X connect 9 0 8 0;
#X connect 10 0 19 0;
#X connect 11 0 10 1;
#X connect 12 0 44 0;
#X connect 13 0 28 2;
#X connect 14 0 15 0;
#X connect 15 0 12 0;
#X connect 16 0 25 0;
#X connect 17 0 53 0;
#X connect 18 0 19 1;
#X connect 19 0 21 0;
#X connect 20 0 26 1;
#X connect 21 0 3 1;
#X connect 22 0 3 0;
#X connect 23 0 24 1;
#X connect 24 0 28 0;
#X connect 25 0 1 0;
#X connect 25 0 30 0;
#X connect 25 0 29 0;
#X connect 25 0 29 1;
#X connect 26 0 22 0;
#X connect 27 0 9 0;
#X connect 27 0 40 1;
#X connect 28 0 16 0;
#X connect 30 0 31 0;
#X connect 32 0 39 0;
#X connect 33 0 25 0;
#X connect 35 0 26 0;
#X connect 35 1 10 0;
#X connect 35 2 4 0;
#X connect 35 3 34 0;
#X connect 36 0 1 0;
#X connect 37 0 40 0;
#X connect 39 0 0 0;
#X connect 39 1 0 1;
#X connect 40 0 32 0;
#X connect 41 0 46 0;
#X connect 42 0 46 1;
#X connect 43 0 28 1;
#X connect 45 0 33 1;
#X connect 46 0 33 0;
#X connect 47 0 48 0;
#X connect 49 0 47 0;
#X connect 53 0 16 1;
#X connect 60 0 64 0;
#X connect 62 0 63 0;
#X connect 64 0 67 0;
#X connect 65 0 64 0;
#X connect 68 0 2 0;
#X connect 69 0 122 0;
#X connect 71 0 112 0;
#X connect 72 0 70 0;
#X connect 72 0 70 1;
#X connect 73 0 71 4;
#X connect 74 0 75 1;
#X connect 75 0 76 0;
#X connect 77 0 78 1;
#X connect 78 0 106 0;
#X connect 79 0 72 0;
#X connect 80 0 81 1;
#X connect 81 0 82 0;
#X connect 83 0 84 1;
#X connect 84 0 105 0;
#X connect 85 0 89 0;
#X connect 86 0 88 0;
#X connect 87 0 119 0;
#X connect 88 0 75 0;
#X connect 88 0 78 0;
#X connect 89 0 91 0;
#X connect 90 0 91 1;
#X connect 91 0 92 0;
#X connect 93 0 71 3;
#X connect 94 0 71 2;
#X connect 96 0 120 1;
#X connect 97 0 81 0;
#X connect 97 0 84 0;
#X connect 98 0 104 0;
#X connect 99 0 100 0;
#X connect 100 0 126 1;
#X connect 101 0 117 0;
#X connect 102 0 114 0;
#X connect 103 0 98 1;
#X connect 107 0 108 0;
#X connect 107 0 110 0;
#X connect 109 0 71 0;
#X connect 111 0 126 0;
#X connect 112 0 95 0;
#X connect 113 0 112 1;
#X connect 114 0 127 1;
#X connect 115 0 116 0;
#X connect 116 0 114 1;
#X connect 118 0 97 1;
#X connect 119 0 86 1;
#X connect 120 0 97 0;
#X connect 121 0 69 0;
#X connect 123 0 120 0;
#X connect 124 0 86 0;
#X connect 125 0 71 1;
#X connect 126 0 127 0;
#X connect 127 0 98 0;
